<?xml version="1.0" encoding="UTF-8" standalone="no"?>
<svg
   version="1.0"
   width="200.000000pt"
   height="200.000000pt"
   viewBox="0 0 200.000000 200.000000"
   preserveAspectRatio="xMidYMid meet"
   id="svg5"
   sodipodi:docname="Red Seal Black.svg"
   inkscape:version="1.4.2 (f4327f4, 2025-05-13)"
   xmlns:inkscape="http://www.inkscape.org/namespaces/inkscape"
   xmlns:sodipodi="http://sodipodi.sourceforge.net/DTD/sodipodi-0.dtd"
   xmlns="http://www.w3.org/2000/svg"
   xmlns:svg="http://www.w3.org/2000/svg">
  <sodipodi:namedview
     id="namedview5"
     pagecolor="#000000"
     bordercolor="#000000"
     borderopacity="0.25"
     inkscape:showpageshadow="2"
     inkscape:pageopacity="0.0"
     inkscape:pagecheckerboard="0"
     inkscape:deskcolor="#d1d1d1"
     inkscape:document-units="pt"
     inkscape:zoom="4.40625"
     inkscape:cx="133.33333"
     inkscape:cy="133.33333"
     inkscape:window-width="2560"
     inkscape:window-height="1377"
     inkscape:window-x="-8"
     inkscape:window-y="263"
     inkscape:window-maximized="1"
     inkscape:current-layer="svg5" />
  <defs
     id="defs5" />
  <g
     transform="translate(0.000000,200.000000) scale(0.100000,-0.100000)"
     fill="#000000"
     stroke="none"
     id="g5"
     style="fill:#cd071e">
    <path
       d="M206 1939 c-55 -6 -74 -13 -93 -33 -13 -14 -28 -26 -34 -26 -6 0 -7 -4 -4 -10 3 -5 1 -19 -6 -31 -9 -17 -8 -23 2 -30 10 -6 11 -11 4 -16 -14 -10 -19 -307 -5 -298 6 3 10 -3 10 -14 0 -12 -7 -21 -15 -21 -18 0 -18 1 0 -43 10 -24 11 -38 4 -42 -5 -4 -8 -12 -6 -18 2 -7 1 -19 -4 -28 -6 -13 -3 -18 13 -22 26 -7 29 -5 29 19 0 11 0 100 -1 199 0 99 -4 198 -10 220 -10 46 -5 54 42 64 34 8 35 7 46 -33 6 -23 11 -72 11 -109 -1 -80 20 -131 61 -155 17 -10 33 -31 40 -52 14 -41 9 -192 -6 -197 -11 -4 -33 56 -43 119 -8 53 -25 78 -53 78 -26 0 -33 -26 -18 -68 7 -19 12 -66 11 -103 -1 -65 -1 -67 31 -88 l33 -20 5 27 c6 31 25 28 25 -5 1 -13 9 -29 20 -36 11 -9 16 -20 12 -31 -9 -22 -28 -20 -34 4 -3 11 -7 20 -10 20 -3 0 -23 -16 -46 -35 -22 -19 -45 -35 -51 -35 -6 0 -5 -4 3 -9 9 -6 3 -8 -20 -7 -25 1 -35 7 -37 21 -8 54 -13 65 -32 65 -16 0 -20 -7 -20 -34 0 -19 5 -38 10 -41 7 -5 8 -11 1 -19 -5 -6 -9 -49 -9 -96 0 -47 -2 -98 -5 -115 -3 -16 -1 -35 5 -42 5 -7 6 -18 1 -25 -8 -14 -12 -438 -3 -438 3 0 5 -41 6 -91 0 -50 5 -94 11 -97 5 -4 12 -15 16 -25 5 -13 13 -17 29 -12 15 4 19 3 10 -3 -17 -12 6 -32 40 -36 13 -1 29 -6 36 -10 7 -4 12 -2 12 3 0 6 5 11 11 11 5 0 8 -4 5 -9 -8 -12 9 -17 64 -20 25 -2 52 -9 61 -17 22 -19 29 -18 29 7 0 12 5 19 13 16 6 -2 24 2 39 9 23 12 28 12 35 0 11 -19 130 -24 161 -7 15 8 28 9 35 3 19 -15 81 -10 94 7 10 13 7 17 -15 21 -15 3 -45 3 -67 -1 -42 -8 -80 6 -105 36 -12 14 -10 20 15 42 27 25 33 27 118 24 162 -5 191 -9 210 -32 9 -12 17 -28 17 -35 0 -18 -44 -36 -79 -33 -50 4 -69 -1 -73 -19 -4 -15 5 -17 89 -20 51 -2 112 -5 136 -7 23 -1 66 1 95 5 28 3 54 4 57 1 9 -8 475 -8 514 0 18 4 43 4 55 -1 13 -5 45 -3 77 4 44 10 58 19 77 46 13 19 27 37 31 40 14 9 21 196 8 209 -8 8 -8 11 2 11 9 0 12 33 12 133 -1 72 2 310 5 527 3 217 6 402 6 410 4 338 -4 396 -62 454 l-39 40 -251 4 c-178 3 -269 1 -311 -8 -45 -10 -62 -10 -73 -1 -15 12 -178 18 -356 13 -52 -1 -111 -2 -130 -1 -19 0 -110 0 -201 -1 l-167 -2 -5 -23 c-7 -37 33 -61 59 -36 5 5 79 12 164 15 86 2 168 8 183 11 15 4 27 3 27 -1 0 -5 25 -10 56 -12 45 -2 59 1 70 15 7 10 14 15 15 11 1 -5 2 -11 3 -15 1 -5 4 -12 7 -18 4 -5 9 -21 12 -35 6 -23 3 -25 -26 -24 -18 1 -41 -4 -53 -11 -13 -9 -36 -11 -62 -8 -23 3 -49 2 -59 -2 -10 -5 -22 -9 -28 -9 -13 -2 -6 -39 8 -49 15 -9 153 1 187 14 14 5 30 20 35 32 12 26 45 36 45 13 0 -8 10 -26 23 -39 12 -13 29 -33 37 -45 8 -12 33 -31 56 -42 50 -23 55 -29 48 -57 -4 -15 -18 -24 -42 -30 -49 -11 -72 -56 -72 -140 0 -68 1 -67 -63 -63 -46 2 -77 -21 -77 -60 0 -30 -35 -69 -49 -54 -5 5 -11 37 -15 72 -7 78 10 102 77 102 51 0 62 7 71 42 9 40 -18 51 -95 39 -43 -7 -68 -7 -82 0 -11 6 -37 8 -60 5 -43 -7 -87 12 -87 38 0 20 31 25 168 25 138 1 165 9 160 49 -2 22 -9 28 -36 30 -18 2 -40 -2 -47 -8 -8 -7 -19 -9 -25 -5 -5 3 -10 1 -10 -6 0 -8 -6 -6 -18 4 -20 19 -107 24 -117 7 -8 -13 -85 28 -85 45 0 8 8 20 18 27 9 7 17 24 17 38 0 24 -3 25 -60 28 -56 3 -63 1 -90 -28 -16 -16 -38 -30 -49 -30 -33 0 -47 -15 -50 -51 -6 -72 -47 -105 -66 -53 -16 42 -11 90 14 141 27 52 22 71 -16 68 -28 -1 -78 -92 -78 -141 0 -17 -7 -38 -16 -45 -14 -12 -20 -9 -40 16 -15 19 -19 32 -12 36 13 8 2 99 -13 99 -13 0 -11 64 2 77 7 7 21 8 42 2 39 -11 64 -4 78 23 10 19 9 20 -20 16 -17 -2 -31 -1 -31 4 0 4 -3 7 -7 7 -5 -1 -39 -5 -77 -10z m529 -19 c3 -5 1 -10 -4 -10 -6 0 -11 5 -11 10 0 6 2 10 4 10 3 0 8 -4 11 -10z m635 0 c0 -5 -2 -10 -4 -10 -3 0 -8 5 -11 10 -3 6 -1 10 4 10 6 0 11 -4 11 -10z m-60 -20 c0 -4 36 -10 81 -12 92 -4 109 -16 109 -79 0 -68 11 -99 34 -99 11 0 29 -7 39 -14 15 -12 15 -15 3 -26 -9 -6 -20 -9 -25 -6 -5 4 -12 2 -15 -3 -10 -15 4 -40 24 -43 17 -3 17 -5 4 -23 -12 -16 -16 -17 -23 -6 -10 16 -71 26 -71 11 0 -6 6 -10 14 -10 15 0 30 -71 17 -80 -5 -3 -8 -16 -7 -30 2 -43 -31 -36 -90 20 -49 46 -57 50 -88 45 -28 -6 -35 -4 -40 13 -4 11 -12 19 -19 18 -7 0 -14 4 -16 9 -2 6 17 13 43 17 26 4 56 14 67 24 18 16 19 16 19 0 0 -14 35 -36 59 -36 4 0 13 16 20 36 11 31 16 35 37 30 19 -5 24 -2 24 11 0 26 -16 47 -29 39 -6 -4 -9 -12 -6 -17 3 -5 -1 -6 -10 -2 -10 3 -21 0 -25 -7 -7 -11 -12 -10 -25 3 -12 13 -31 16 -77 15 -56 -3 -61 -1 -89 30 -19 21 -38 32 -56 32 -18 0 -35 9 -47 25 -10 14 -27 25 -37 25 -14 0 -19 7 -19 31 0 25 -3 29 -19 24 -11 -3 -21 0 -24 8 -8 21 8 40 29 33 29 -9 204 -16 203 -8 -3 17 2 21 16 16 8 -4 15 -10 15 -14z m448 -10 c2 6 8 10 14 10 6 0 7 -7 4 -15 -4 -10 3 -20 19 -27 31 -14 23 -29 -15 -24 -21 2 -27 0 -23 -11 3 -7 -3 -23 -13 -35 -11 -12 -14 -18 -7 -14 7 3 24 4 38 0 19 -5 25 -12 23 -27 -2 -11 3 -22 10 -24 7 -3 10 1 6 11 -3 9 4 32 16 52 17 29 18 39 8 45 -10 7 -9 9 4 9 24 0 68 -57 68 -90 0 -23 -7 -32 -43 -49 -54 -26 -56 -26 -106 1 -28 15 -41 28 -41 42 0 17 -3 16 -19 -10 -26 -42 -35 -46 -66 -32 -19 9 -25 17 -22 32 16 70 18 91 8 76 -6 -8 -11 -13 -12 -10 0 3 -3 16 -5 30 -3 14 0 34 6 46 11 19 17 20 78 12 43 -5 68 -4 70 2z m62 6 c0 -3 -4 -8 -10 -11 -5 -3 -10 -1 -10 4 0 6 5 11 10 11 6 0 10 -2 10 -4z m-642 -178 c7 -7 12 -16 12 -20 0 -11 -32 -10 -50 2 -13 9 -13 11 0 20 19 13 24 12 38 -2z m-711 -40 c-3 -8 -6 -5 -6 6 -1 11 2 17 5 13 3 -3 4 -12 1 -19z m103 12 c0 -5 -7 -10 -15 -10 -8 0 -15 5 -15 10 0 6 7 10 15 10 8 0 15 -4 15 -10z m690 -20 c0 -5 -4 -10 -10 -10 -5 0 -10 5 -10 10 0 6 5 10 10 10 6 0 10 -4 10 -10z m-700 -10 c0 -5 -2 -10 -4 -10 -3 0 -8 5 -11 10 -3 6 -1 10 4 10 6 0 11 -4 11 -10z m2 -78 c2 -26 0 -81 -4 -122 -3 -41 -8 -109 -10 -152 -2 -42 -9 -82 -15 -90 -6 -7 -27 -50 -47 -95 -30 -67 -35 -86 -26 -103 6 -11 17 -20 25 -20 8 0 15 -7 15 -15 0 -8 -3 -14 -7 -13 -5 1 -19 -4 -33 -11 -13 -8 -62 -15 -110 -17 -84 -2 -87 -2 -119 28 -29 28 -31 32 -17 47 9 10 16 28 16 41 0 18 3 20 14 11 19 -16 39 -5 91 50 22 23 59 50 82 61 46 20 64 38 39 38 -9 0 -16 5 -16 10 0 6 7 10 15 10 17 0 39 46 31 65 -2 6 0 35 6 65 15 83 -15 127 -55 82 -11 -12 -18 -39 -20 -72 -1 -37 -7 -56 -19 -64 -9 -5 -19 -8 -22 -6 -2 3 -7 43 -10 90 l-6 85 62 35 c45 26 65 44 73 65 11 35 17 40 44 42 17 1 20 -5 23 -45z m1324 37 c24 -6 44 -16 44 -21 0 -5 -5 -6 -10 -3 -10 6 -6 -56 6 -93 2 -7 -1 -10 -6 -7 -12 7 -13 -10 -10 -180 6 -309 5 -334 -7 -346 -7 -7 -13 -22 -13 -34 0 -11 -9 -26 -20 -33 -15 -9 -20 -9 -20 0 0 22 -33 48 -63 48 -24 0 -28 3 -22 18 4 9 8 27 9 40 1 12 6 26 11 30 13 8 14 290 1 310 -4 7 -2 19 5 28 7 9 14 23 15 31 2 8 12 25 23 37 27 29 27 61 0 80 -19 13 -26 13 -48 1 -33 -16 -73 -86 -65 -111 5 -14 0 -12 -17 7 -13 14 -35 31 -50 38 -24 12 -39 38 -59 104 -10 31 -13 30 100 31 54 1 82 6 100 19 29 20 37 21 96 6z m-1546 -49 c6 -11 17 -20 25 -20 8 0 15 -4 15 -10 0 -12 -13 -13 -24 -3 -4 4 -16 8 -26 8 -11 0 -20 3 -20 8 0 31 1 37 10 37 5 0 14 -9 20 -20z m100 -5 c0 -8 -4 -15 -10 -15 -5 0 -10 7 -10 15 0 8 5 15 10 15 6 0 10 -7 10 -15z m740 0 c0 -8 -4 -15 -10 -15 -5 0 -10 7 -10 15 0 8 5 15 10 15 6 0 10 -7 10 -15z m-540 -5 c0 -5 -6 -10 -14 -10 -8 0 -18 5 -21 10 -3 6 3 10 14 10 12 0 21 -4 21 -10z m7 -68 c2 -10 16 -23 31 -30 15 -6 42 -21 60 -32 32 -20 32 -20 32 -103 0 -71 -3 -87 -20 -102 -18 -16 -20 -16 -20 -1 0 9 -13 30 -30 47 -16 18 -27 36 -23 42 5 8 8 7 11 -1 2 -7 8 -12 12 -12 5 0 -3 18 -17 40 -15 22 -31 40 -36 40 -4 0 -8 12 -6 28 1 15 -1 34 -4 42 -12 34 -15 60 -5 60 5 0 12 -8 15 -18z m548 -89 c-6 -27 0 -29 22 -8 8 8 19 12 25 9 11 -7 -11 -29 -35 -37 -10 -3 -20 -517 -11 -549 3 -10 11 -15 20 -11 7 3 14 0 14 -6 0 -7 -7 -14 -15 -17 -12 -5 -15 -31 -15 -146 0 -90 4 -137 10 -133 6 3 10 2 10 -4 0 -5 -4 -13 -10 -16 -21 -13 -11 -75 17 -101 30 -28 27 -39 -9 -25 -24 9 -25 8 -22 -25 3 -48 42 -138 65 -152 17 -11 19 -9 19 13 0 27 9 32 28 13 17 -17 47 9 31 28 -6 8 -15 11 -20 8 -5 -3 -9 4 -9 14 0 24 -23 35 -39 19 -6 -6 -11 -7 -11 -1 0 14 49 48 79 54 19 4 32 18 50 53 19 39 24 66 26 155 4 130 -1 169 -26 183 -34 18 -59 -5 -59 -56 0 -33 4 -45 15 -45 9 0 12 -6 9 -15 -4 -8 -11 -12 -16 -9 -6 4 -8 -19 -4 -65 5 -64 4 -71 -15 -81 -42 -23 -48 -2 -48 176 0 174 5 194 50 194 25 0 69 43 69 68 0 21 51 62 78 62 19 0 42 -37 42 -68 0 -10 -13 -29 -30 -44 -16 -14 -30 -33 -30 -41 0 -24 45 -54 92 -61 23 -4 64 -14 90 -23 85 -28 111 -100 42 -117 -37 -10 -114 3 -114 19 0 21 -38 24 -60 5 -11 -9 -20 -26 -20 -37 0 -29 49 -69 105 -85 28 -7 51 -20 53 -28 2 -16 -72 -100 -125 -140 -23 -17 -32 -33 -32 -50 1 -17 3 -19 6 -7 7 27 24 20 21 -9 -4 -33 21 -45 29 -15 8 32 24 25 17 -6 -8 -34 -4 -30 -37 -38 -23 -6 -27 -4 -27 14 0 12 -4 21 -9 21 -5 0 -9 -16 -9 -35 0 -19 4 -35 9 -35 5 0 4 -10 -3 -23 -7 -12 -14 -23 -15 -25 -4 -10 -90 24 -104 41 -23 28 -51 17 -73 -29 l-19 -40 -79 2 c-44 1 -85 8 -93 14 -18 15 -19 49 -3 87 6 15 10 36 9 46 -1 9 3 17 9 17 7 0 9 7 6 16 -3 9 -3 21 1 27 5 7 8 30 9 52 1 22 4 90 8 152 4 69 2 114 -4 118 -6 4 -6 15 1 32 8 22 7 29 -7 36 -13 8 -14 11 -3 18 13 8 23 186 21 359 -4 236 -1 364 9 377 18 21 52 -13 44 -44z m119 31 c13 -13 16 -45 16 -190 0 -132 3 -174 13 -174 16 -1 51 -49 42 -58 -4 -4 -10 -2 -12 5 -5 15 -43 -21 -43 -42 0 -21 -35 -38 -48 -22 -11 15 -11 466 1 485 10 15 12 15 31 -4z m337 -45 c11 -5 17 -14 14 -20 -4 -5 1 -9 9 -9 9 0 16 -6 16 -14 0 -8 5 -16 10 -18 6 -2 8 -16 4 -35 -6 -30 -9 -32 -42 -29 -37 4 -77 39 -66 58 3 5 -3 12 -15 15 -30 8 -26 37 7 50 36 15 40 15 63 2z m-150 -57 c7 -19 6 -29 -7 -43 -21 -23 -32 -24 -56 -2 -25 22 -23 56 5 69 29 13 47 7 58 -24z m-465 -9 c4 -10 8 -72 10 -138 1 -66 0 -115 -2 -108 -3 7 -12 9 -19 7 -14 -6 -125 64 -125 78 0 4 9 10 20 13 24 8 45 45 55 100 11 62 43 87 61 48z m64 -43 c-12 -23 -30 -27 -30 -7 0 17 10 27 27 27 11 0 11 -5 3 -20z m-705 1 c3 -5 1 -12 -5 -16 -5 -3 -10 1 -10 9 0 18 6 21 15 7z m694 -65 c7 -8 8 -17 3 -20 -6 -3 -12 3 -15 14 -6 24 -4 25 12 6z m-444 -36 c3 -11 4 -24 1 -28 -8 -13 13 -85 30 -102 12 -12 14 -11 14 9 0 14 5 21 13 18 6 -2 12 -14 11 -27 -1 -20 2 -21 35 -15 42 8 49 8 116 -1 56 -7 68 -14 60 -35 -9 -24 -66 -47 -125 -52 -30 -2 -63 -8 -72 -12 -13 -5 -18 -2 -18 10 0 12 -5 15 -17 11 -19 -8 -140 51 -147 71 -3 7 6 39 20 71 14 31 30 67 35 80 11 27 35 29 44 2z m837 -27 c22 -20 23 -51 2 -81 -18 -26 -37 -28 -58 -6 -24 23 -20 70 6 88 28 20 27 20 50 -1z m207 -5 c47 -17 54 -29 30 -51 -23 -21 -25 -55 -5 -83 17 -24 10 -64 -10 -64 -15 0 -39 38 -29 48 3 4 10 0 15 -8 7 -11 10 -12 10 -2 0 8 -18 30 -40 51 -32 30 -40 44 -40 72 0 53 9 58 69 37z m-299 -13 c0 -8 -4 -15 -10 -15 -5 0 -10 7 -10 15 0 8 5 15 10 15 6 0 10 -7 10 -15z m-700 -35 c0 -5 -2 -10 -4 -10 -3 0 -8 5 -11 10 -3 6 -1 10 4 10 6 0 11 -4 11 -10z m58 -29 c3 -8 -1 -12 -9 -9 -7 2 -15 10 -17 17 -3 8 1 12 9 9 7 -2 15 -10 17 -17z m-548 -33 c0 -4 -7 -8 -15 -8 -9 0 -12 -6 -9 -15 8 -20 -1 -19 -26 2 -28 25 -25 31 15 30 19 -1 35 -5 35 -9z m840 -28 c0 -5 -2 -10 -4 -10 -3 0 -8 5 -11 10 -3 6 -1 10 4 10 6 0 11 -4 11 -10z m-890 -45 c0 -8 -4 -15 -10 -15 -5 0 -10 7 -10 15 0 8 5 15 10 15 6 0 10 -7 10 -15z m889 -32 c12 -29 9 -192 -4 -212 -3 -6 -15 -11 -25 -11 -10 0 -22 -4 -25 -10 -3 -5 -13 -10 -22 -10 -13 0 -13 3 -3 15 10 12 9 20 -4 40 -10 15 -14 34 -10 49 3 14 1 27 -6 31 -13 8 -323 15 -357 8 -16 -4 -28 -20 -42 -59 -21 -56 -56 -104 -77 -104 -31 0 -38 -32 -40 -177 -1 -120 -4 -147 -18 -161 -15 -15 -18 -15 -26 -2 -5 8 -10 25 -10 37 0 31 -34 48 -54 27 -9 -8 -16 -18 -16 -22 -1 -18 -29 -42 -43 -37 -11 5 -14 18 -12 53 5 68 -13 209 -30 243 -17 33 -62 59 -101 59 l-26 0 5 99 c3 54 10 108 17 120 11 21 13 21 33 7 30 -22 78 -44 102 -48 14 -2 20 -11 20 -28 0 -20 -6 -26 -30 -28 -41 -5 -57 -20 -53 -51 2 -20 10 -27 38 -32 19 -4 45 -20 58 -34 21 -24 23 -35 19 -104 -2 -42 -1 -99 2 -127 l6 -50 33 8 c33 9 33 10 32 61 -1 29 -1 89 -1 135 1 75 3 86 25 105 13 12 34 22 45 22 11 0 20 3 18 6 -1 3 4 14 12 23 19 23 5 34 -52 42 -44 6 -47 5 -56 -20 -6 -14 -15 -26 -20 -26 -14 0 -21 29 -9 36 7 4 5 10 -6 16 -17 9 -22 38 -7 38 5 0 11 -7 15 -15 8 -21 34 -19 48 5 7 11 20 20 29 20 12 0 15 7 11 25 -4 26 9 32 42 19 23 -9 20 -27 -4 -21 -11 3 -20 1 -20 -4 0 -10 63 -13 73 -3 3 4 84 6 179 5 285 -2 259 -5 292 34 16 19 33 35 37 35 3 0 12 -12 18 -27z m700 -43 c35 -34 67 -57 75 -54 7 3 20 -2 29 -10 9 -9 20 -16 25 -16 16 0 44 -77 45 -122 1 -280 -6 -438 -19 -449 -8 -6 -14 -18 -14 -25 0 -8 -8 -14 -17 -15 -10 0 -30 -2 -45 -4 -28 -4 -40 17 -18 30 6 4 6 13 1 23 -12 22 -35 84 -37 97 0 6 -2 27 -2 48 -1 20 -6 37 -12 37 -5 0 -7 -7 -4 -15 4 -8 1 -15 -5 -15 -17 0 -13 19 8 49 19 27 19 27 1 27 -11 -1 -19 4 -19 9 -1 6 8 10 19 10 42 1 55 30 55 123 0 48 -3 99 -7 113 -8 28 -59 64 -106 75 -15 4 -39 13 -54 21 -24 12 -28 20 -28 56 0 87 45 90 129 7z m-1397 15 c16 -14 25 -25 20 -25 -6 0 -17 -2 -24 -5 -9 -4 -19 4 -26 20 -20 44 -13 46 30 10z m403 15 c-3 -5 -11 -10 -16 -10 -6 0 -7 5 -4 10 3 6 11 10 16 10 6 0 7 -4 4 -10z m1085 -10 c0 -5 -4 -10 -9 -10 -6 0 -13 5 -16 10 -3 6 1 10 9 10 9 0 16 -4 16 -10z m-500 -55 c0 -7 -7 -16 -15 -19 -18 -7 -30 16 -21 40 5 13 9 14 21 4 8 -7 15 -18 15 -25z m500 15 c0 -5 -5 -10 -11 -10 -5 0 -7 5 -4 10 3 6 8 10 11 10 2 0 4 -4 4 -10z m-570 -85 c0 -8 -4 -15 -10 -15 -5 0 -10 7 -10 15 0 8 5 15 10 15 6 0 10 -7 10 -15z m-426 -21 c37 -6 46 -10 46 -27 0 -34 47 -87 79 -87 17 0 37 -10 53 -27 22 -24 26 -38 27 -98 1 -38 4 -81 5 -95 2 -14 4 -33 5 -42 0 -10 8 -18 16 -18 21 0 19 -17 -4 -23 -12 -3 -20 -17 -25 -46 -4 -28 -14 -46 -32 -58 -24 -15 -27 -15 -56 1 -25 15 -58 19 -192 21 -88 2 -165 0 -171 -5 -5 -4 -20 -10 -33 -13 -20 -5 -26 0 -39 30 -16 39 -18 78 -12 221 4 92 4 93 41 128 21 19 50 56 65 82 15 26 32 50 38 54 12 9 126 10 189 2z m396 -124 c0 -5 -5 -10 -11 -10 -5 0 -7 5 -4 10 3 6 8 10 11 10 2 0 4 -4 4 -10z m317 -46 c-3 -3 -12 -4 -19 -1 -8 3 -5 6 6 6 11 1 17 -2 13 -5z m-1385 -44 c9 -47 13 -284 4 -299 -9 -14 7 -14 21 0 14 14 33 3 33 -19 0 -15 14 -17 103 -20 56 -2 106 -8 112 -13 5 -5 19 -9 31 -9 17 0 23 -8 29 -36 8 -46 -5 -57 -64 -49 -24 3 -83 5 -130 5 -47 0 -92 4 -100 9 -8 5 -14 23 -15 40 0 17 -5 31 -11 32 -5 0 1 5 14 10 38 15 13 24 -72 28 -19 1 -26 5 -21 13 4 7 7 83 5 170 -1 87 1 163 4 169 4 5 16 9 28 7 15 -2 23 -13 29 -38z m958 -84 c0 -3 -4 -8 -10 -11 -5 -3 -10 -1 -10 4 0 6 5 11 10 11 6 0 10 -2 10 -4z m194 -93 c-10 -7 -12 -13 -6 -13 7 0 12 -4 12 -10 0 -20 -20 -9 -26 14 -8 34 3 51 23 35 13 -11 13 -14 -3 -26z m386 -18 c0 -8 -4 -15 -9 -15 -13 0 -22 16 -14 24 11 11 23 6 23 -9z m-10 -75 c11 -11 20 -27 20 -35 0 -9 18 -35 40 -59 45 -49 47 -56 22 -80 -15 -13 -38 -16 -108 -15 -115 2 -137 10 -128 46 11 46 60 124 91 144 35 24 38 24 63 -1z m-440 -12 c0 -13 -23 -5 -28 10 -2 7 2 10 12 6 9 -3 16 -11 16 -16z m-250 -73 c9 -11 9 -19 -3 -35 l-14 -21 -7 23 c-12 48 -1 64 24 33z m40 -55 c0 -5 -4 -10 -10 -10 -5 0 -10 5 -10 10 0 6 5 10 10 10 6 0 10 -4 10 -10z m790 -4 c0 -3 -4 -8 -10 -11 -5 -3 -10 -1 -10 4 0 6 5 11 10 11 6 0 10 -2 10 -4z"
       id="path1"
       style="fill:#cd071e" />
    <path
       d="M1614 1350 c0 -13 4 -16 10 -10 7 7 7 13 0 20 -6 6 -10 3 -10 -10z"
       id="path2"
       style="fill:#cd071e" />
    <path
       d="M655 700 c-9 -15 13 -50 33 -51 55 -2 138 4 145 11 5 4 6 17 2 29 -6 19 -14 21 -90 21 -46 0 -87 -4 -90 -10z"
       id="path3"
       style="fill:#cd071e" />
    <path
       d="M595 573 c-18 -17 -20 -53 -3 -53 9 0 9 -3 0 -12 -7 -7 -12 -41 -12 -83 0 -95 7 -101 135 -108 107 -7 130 -1 119 28 -5 13 -3 16 7 13 8 -3 13 -12 11 -22 -2 -12 5 -16 25 -16 21 0 33 8 46 29 22 37 22 52 0 44 -17 -7 -17 -6 0 11 9 9 17 20 17 23 0 3 -8 12 -17 20 -17 14 -17 14 0 9 14 -5 17 1 17 39 0 24 -4 55 -10 69 l-9 25 -156 0 c-123 -1 -158 -4 -170 -16z m289 -71 c-4 -4 -9 -1 -11 6 -4 10 -9 10 -23 -3 -11 -10 -41 -18 -82 -20 -53 -3 -66 -1 -75 14 -6 10 -8 23 -4 30 9 14 70 19 129 11 31 -5 45 -3 55 8 10 13 12 11 15 -12 2 -15 0 -31 -4 -34z m-4 -22 c0 -5 -4 -10 -10 -10 -5 0 -10 5 -10 10 0 6 5 10 10 10 6 0 10 -4 10 -10z m-32 -55 c0 -44 -17 -54 -82 -50 -81 5 -105 55 -27 55 21 0 52 7 67 15 40 21 42 20 42 -20z m-138 -70 c0 -8 -4 -15 -9 -15 -13 0 -22 16 -14 24 11 11 23 6 23 -9z m210 5 c0 -5 -4 -10 -10 -10 -5 0 -10 5 -10 10 0 6 5 10 10 10 6 0 10 -4 10 -10z"
       id="path4"
       style="fill:#cd071e" />
    <path
       d="M67 1263 c-10 -10 -8 -53 2 -53 5 0 12 -8 14 -17 4 -14 5 -13 6 4 0 12 -5 24 -11 26 -8 3 -6 6 5 6 10 1 17 9 17 21 0 19 -20 27 -33 13z"
       id="path5"
       style="fill:#cd071e" />
  </g>
</svg>
